<?xml version="1.0"?>
<svg xmlns="http://www.w3.org/2000/svg" xmlns:xlink="http://www.w3.org/1999/xlink" version="1.1" id="Capa_1" x="0px" y="0px" viewBox="0 0 511.359 511.359" style="enable-background:new 0 0 511.359 511.359;" xml:space="preserve" width="512px" height="512px"><g><g>
	<g>
		<path d="M511.326,26.198c0-0.171-0.068-0.341-0.094-0.521c-0.133-0.937-0.422-1.846-0.853-2.688c0-0.06,0-0.137-0.068-0.205    v-0.051l-0.06-0.128c-0.511-0.807-1.155-1.522-1.903-2.116c-0.162-0.137-0.324-0.265-0.495-0.384    c-0.776-0.565-1.641-0.995-2.56-1.271c-0.111,0-0.222,0-0.333-0.06c-0.508-0.138-1.028-0.229-1.553-0.273    c-3.959-0.247-98.133-4.386-153.643,62.447c-3.413,4.147-6.616,8.22-9.609,12.22c-42.649,1.477-85.086,6.697-126.822,15.599    C157.372,95.164,81.63,92.553,51.388,92.015c-4.544-0.036-8.919,1.714-12.186,4.873c-3.271,3.211-5.099,7.611-5.069,12.194v8.44    H17.067C7.641,117.521,0,125.162,0,134.588v307.2c0,9.426,7.641,17.067,17.067,17.067h145.067v17.067    c0,9.426,7.641,17.067,17.067,17.067h68.267c9.426,0,17.067-7.641,17.067-17.067v-17.067H409.6    c9.426,0,17.067-7.641,17.067-17.067v-263.27c7.604-6.115,14.866-12.644,21.751-19.558c21.734-21.726,34.295-55.748,46.447-88.653    c5.248-14.225,10.24-27.656,15.753-39.723c0.123-0.32,0.226-0.648,0.307-0.981c0.068-0.196,0.137-0.375,0.188-0.58    C511.337,28.098,511.409,27.144,511.326,26.198z M362.803,91.853c30.857-37.163,76.484-49.886,107.11-54.195    c-55.514,36.594-105.513,80.935-148.48,131.678C328.967,140.625,343.137,114.085,362.803,91.853z M221.867,124.348    c35.016-7.221,70.538-11.718,106.249-13.449c-11.705,18.217-19.99,38.416-24.448,59.605c-0.295,0.152-0.58,0.323-0.853,0.512    l-42.24,39.424c-2.411,2.251-3.308,5.691-2.304,8.833c1.004,3.142,3.728,5.424,6.998,5.862l21.094,2.807    c2.428,0.347,4.878,0.521,7.33,0.521c13.281,0.022,26.081-4.97,35.84-13.978l1.809-1.707c3.582,0.477,7.19,0.722,10.803,0.734    c11.33-0.086,22.571-2.017,33.28-5.717l0.06,191.394c-51.535,0.528-102.929,5.478-153.617,14.797V124.348z M310.468,207.155    c-6.667,3.551-14.285,4.909-21.768,3.883l-3.268-0.435l16.273-15.198c0.128,2.014,0.307,3.277,0.35,3.567    c0.195,1.137,0.619,2.223,1.246,3.192c0.736,0.785,1.47,1.573,2.202,2.364c0.08,0.048,0.162,0.09,0.247,0.128    c0.051,0,0.085,0.102,0.136,0.137C307.366,205.668,308.896,206.457,310.468,207.155z M51.149,125.782v-16.7    c22.528,0.367,98.116,2.586,153.651,15.266v289.638c-50.683-9.313-102.071-14.258-153.6-14.78l-0.051-272.879    c0-0.094,0.051-0.179,0.051-0.273S51.149,125.875,51.149,125.782z M409.668,441.788H264.533c-9.426,0-17.067,7.641-17.067,17.067    v17.067H179.2v-17.067c0-9.426-7.641-17.067-17.067-17.067H17.067v-307.2h17.067v264.619c0.021,9.288,7.448,16.863,16.734,17.067    c23.433,0.375,104.252,2.688,160.427,16.725c0.661,0.166,1.341,0.249,2.022,0.247h0.102c0.682,0.001,1.361-0.082,2.022-0.247    c56.141-14.037,136.96-16.35,160.427-16.725c9.286-0.204,16.713-7.779,16.734-17.067V200.687    c5.874-2.904,11.572-6.149,17.067-9.719V441.788z M478.874,64.427c-11.529,31.147-23.432,63.386-42.522,82.466    c-55.202,55.194-95.684,52.113-112.589,47.07c52.454-69.35,125.005-121.873,161.084-145.562    C482.862,53.624,480.87,58.966,478.874,64.427z" data-original="#000000" class="active-path" data-old_color="#ffffff" fill="#ffffff"/>
	</g>
</g></g> </svg>
